<mxfile host="Electron" modified="2024-02-11T14:46:46.719Z" agent="Mozilla/5.0 (X11; Linux x86_64) AppleWebKit/537.36 (KHTML, like Gecko) draw.io/23.0.2 Chrome/120.0.6099.109 Electron/28.1.0 Safari/537.36" etag="5K4vey2bzAcFuLTbAnO8" version="23.0.2" type="device">
  <diagram name="Page-1" id="W6OvQmUe8IGUw8YKB-pM">
    <mxGraphModel dx="398" dy="242" grid="1" gridSize="10" guides="1" tooltips="1" connect="1" arrows="1" fold="1" page="1" pageScale="1" pageWidth="827" pageHeight="1169" math="0" shadow="0">
      <root>
        <mxCell id="0" />
        <mxCell id="1" parent="0" />
        <mxCell id="wNN6C3QWMdXtGnTGVdni-1" value="Core0" style="rounded=0;whiteSpace=wrap;html=1;" vertex="1" parent="1">
          <mxGeometry x="160" y="40" width="80" height="40" as="geometry" />
        </mxCell>
        <mxCell id="wNN6C3QWMdXtGnTGVdni-2" value="Core1" style="rounded=0;whiteSpace=wrap;html=1;" vertex="1" parent="1">
          <mxGeometry x="360" y="40" width="80" height="40" as="geometry" />
        </mxCell>
        <mxCell id="wNN6C3QWMdXtGnTGVdni-4" value="" style="endArrow=none;dashed=1;html=1;rounded=0;entryX=0.5;entryY=1;entryDx=0;entryDy=0;" edge="1" parent="1" source="wNN6C3QWMdXtGnTGVdni-35" target="wNN6C3QWMdXtGnTGVdni-1">
          <mxGeometry width="50" height="50" relative="1" as="geometry">
            <mxPoint x="200" y="440.4" as="sourcePoint" />
            <mxPoint x="270" y="130" as="targetPoint" />
          </mxGeometry>
        </mxCell>
        <mxCell id="wNN6C3QWMdXtGnTGVdni-5" value="" style="endArrow=none;dashed=1;html=1;rounded=0;entryX=0.5;entryY=1;entryDx=0;entryDy=0;exitX=0.5;exitY=0;exitDx=0;exitDy=0;" edge="1" parent="1" source="wNN6C3QWMdXtGnTGVdni-57" target="wNN6C3QWMdXtGnTGVdni-2">
          <mxGeometry width="50" height="50" relative="1" as="geometry">
            <mxPoint x="400" y="100.00000000000006" as="sourcePoint" />
            <mxPoint x="370" y="160" as="targetPoint" />
          </mxGeometry>
        </mxCell>
        <mxCell id="wNN6C3QWMdXtGnTGVdni-6" value="" style="rounded=0;whiteSpace=wrap;html=1;" vertex="1" parent="1">
          <mxGeometry x="190" y="100" width="20" height="60" as="geometry" />
        </mxCell>
        <mxCell id="wNN6C3QWMdXtGnTGVdni-8" value="" style="endArrow=classic;html=1;rounded=0;entryX=0;entryY=0;entryDx=0;entryDy=0;" edge="1" parent="1" target="wNN6C3QWMdXtGnTGVdni-6">
          <mxGeometry width="50" height="50" relative="1" as="geometry">
            <mxPoint x="50" y="100" as="sourcePoint" />
            <mxPoint x="160" y="80" as="targetPoint" />
          </mxGeometry>
        </mxCell>
        <mxCell id="wNN6C3QWMdXtGnTGVdni-9" value="Job #1 and #2&lt;br&gt;from USB" style="edgeLabel;html=1;align=center;verticalAlign=middle;resizable=0;points=[];" vertex="1" connectable="0" parent="wNN6C3QWMdXtGnTGVdni-8">
          <mxGeometry x="-0.0311" y="-1" relative="1" as="geometry">
            <mxPoint as="offset" />
          </mxGeometry>
        </mxCell>
        <mxCell id="wNN6C3QWMdXtGnTGVdni-14" value="" style="endArrow=classic;html=1;rounded=0;entryX=0;entryY=0;entryDx=0;entryDy=0;" edge="1" parent="1" target="wNN6C3QWMdXtGnTGVdni-35">
          <mxGeometry width="50" height="50" relative="1" as="geometry">
            <mxPoint x="60" y="310" as="sourcePoint" />
            <mxPoint x="200" y="290" as="targetPoint" />
          </mxGeometry>
        </mxCell>
        <mxCell id="wNN6C3QWMdXtGnTGVdni-15" value="Job #3&lt;br&gt;from USB" style="edgeLabel;html=1;align=center;verticalAlign=middle;resizable=0;points=[];" vertex="1" connectable="0" parent="wNN6C3QWMdXtGnTGVdni-14">
          <mxGeometry x="-0.0311" y="-1" relative="1" as="geometry">
            <mxPoint as="offset" />
          </mxGeometry>
        </mxCell>
        <mxCell id="wNN6C3QWMdXtGnTGVdni-16" value="" style="endArrow=classic;html=1;rounded=0;entryX=0;entryY=0;entryDx=0;entryDy=0;" edge="1" parent="1">
          <mxGeometry width="50" height="50" relative="1" as="geometry">
            <mxPoint x="50" y="488.81999999999994" as="sourcePoint" />
            <mxPoint x="190" y="488.81999999999994" as="targetPoint" />
          </mxGeometry>
        </mxCell>
        <mxCell id="wNN6C3QWMdXtGnTGVdni-17" value="&amp;nbsp;Jobs #4&lt;br&gt;from USB" style="edgeLabel;html=1;align=center;verticalAlign=middle;resizable=0;points=[];" vertex="1" connectable="0" parent="wNN6C3QWMdXtGnTGVdni-16">
          <mxGeometry x="-0.0311" y="-1" relative="1" as="geometry">
            <mxPoint as="offset" />
          </mxGeometry>
        </mxCell>
        <mxCell id="wNN6C3QWMdXtGnTGVdni-21" value="" style="endArrow=classic;html=1;rounded=0;" edge="1" parent="1">
          <mxGeometry width="50" height="50" relative="1" as="geometry">
            <mxPoint x="210" y="140" as="sourcePoint" />
            <mxPoint x="280" y="140" as="targetPoint" />
          </mxGeometry>
        </mxCell>
        <mxCell id="wNN6C3QWMdXtGnTGVdni-23" value="#1" style="edgeLabel;html=1;align=center;verticalAlign=middle;resizable=0;points=[];" vertex="1" connectable="0" parent="wNN6C3QWMdXtGnTGVdni-21">
          <mxGeometry x="-0.12" y="-2" relative="1" as="geometry">
            <mxPoint as="offset" />
          </mxGeometry>
        </mxCell>
        <mxCell id="wNN6C3QWMdXtGnTGVdni-25" value="" style="endArrow=none;dashed=1;html=1;rounded=0;entryX=0.5;entryY=1;entryDx=0;entryDy=0;" edge="1" parent="1" source="wNN6C3QWMdXtGnTGVdni-13">
          <mxGeometry width="50" height="50" relative="1" as="geometry">
            <mxPoint x="400" y="440" as="sourcePoint" />
            <mxPoint x="399.9999999999998" y="160" as="targetPoint" />
          </mxGeometry>
        </mxCell>
        <mxCell id="wNN6C3QWMdXtGnTGVdni-28" value="" style="endArrow=none;dashed=1;html=1;rounded=0;entryX=0.5;entryY=1;entryDx=0;entryDy=0;" edge="1" parent="1" source="wNN6C3QWMdXtGnTGVdni-46">
          <mxGeometry width="50" height="50" relative="1" as="geometry">
            <mxPoint x="400" y="220" as="sourcePoint" />
            <mxPoint x="400" y="260" as="targetPoint" />
            <Array as="points" />
          </mxGeometry>
        </mxCell>
        <mxCell id="wNN6C3QWMdXtGnTGVdni-13" value="&lt;div style=&quot;&quot;&gt;Process #1&lt;/div&gt;" style="rounded=0;html=1;horizontal=1;labelPosition=right;verticalLabelPosition=middle;align=left;verticalAlign=middle;spacingLeft=5;strokeColor=#001eff;" vertex="1" parent="1">
          <mxGeometry x="390" y="150" width="20" height="110" as="geometry" />
        </mxCell>
        <mxCell id="wNN6C3QWMdXtGnTGVdni-33" value="" style="endArrow=none;dashed=1;html=1;rounded=0;entryX=0.5;entryY=1;entryDx=0;entryDy=0;" edge="1" parent="1" target="wNN6C3QWMdXtGnTGVdni-32">
          <mxGeometry width="50" height="50" relative="1" as="geometry">
            <mxPoint x="400" y="360" as="sourcePoint" />
            <mxPoint x="400" y="260" as="targetPoint" />
          </mxGeometry>
        </mxCell>
        <mxCell id="wNN6C3QWMdXtGnTGVdni-32" value="&lt;div style=&quot;&quot;&gt;Process #2&lt;/div&gt;" style="rounded=0;html=1;horizontal=1;labelPosition=right;verticalLabelPosition=middle;align=left;verticalAlign=middle;spacingLeft=5;strokeColor=#001eff;" vertex="1" parent="1">
          <mxGeometry x="390" y="280" width="20" height="80" as="geometry" />
        </mxCell>
        <mxCell id="wNN6C3QWMdXtGnTGVdni-68" style="edgeStyle=orthogonalEdgeStyle;rounded=0;orthogonalLoop=1;jettySize=auto;html=1;exitX=0.5;exitY=1;exitDx=0;exitDy=0;entryX=0.5;entryY=0;entryDx=0;entryDy=0;endArrow=none;endFill=0;dashed=1;" edge="1" parent="1" source="wNN6C3QWMdXtGnTGVdni-72" target="wNN6C3QWMdXtGnTGVdni-52">
          <mxGeometry relative="1" as="geometry" />
        </mxCell>
        <mxCell id="wNN6C3QWMdXtGnTGVdni-40" value="&lt;div style=&quot;&quot;&gt;Process #3&lt;/div&gt;" style="rounded=0;html=1;horizontal=1;labelPosition=right;verticalLabelPosition=middle;align=left;verticalAlign=middle;spacingLeft=5;strokeColor=#001eff;" vertex="1" parent="1">
          <mxGeometry x="390" y="400" width="20" height="80" as="geometry" />
        </mxCell>
        <mxCell id="wNN6C3QWMdXtGnTGVdni-45" value="DAC" style="rounded=0;whiteSpace=wrap;html=1;" vertex="1" parent="1">
          <mxGeometry x="600" y="40" width="80" height="40" as="geometry" />
        </mxCell>
        <mxCell id="wNN6C3QWMdXtGnTGVdni-47" value="" style="endArrow=none;dashed=1;html=1;rounded=0;entryX=0.5;entryY=1;entryDx=0;entryDy=0;exitX=0.5;exitY=0;exitDx=0;exitDy=0;" edge="1" parent="1" source="wNN6C3QWMdXtGnTGVdni-55" target="wNN6C3QWMdXtGnTGVdni-35">
          <mxGeometry width="50" height="50" relative="1" as="geometry">
            <mxPoint x="200" y="440.4" as="sourcePoint" />
            <mxPoint x="200" y="80" as="targetPoint" />
          </mxGeometry>
        </mxCell>
        <mxCell id="wNN6C3QWMdXtGnTGVdni-35" value="" style="rounded=0;whiteSpace=wrap;html=1;" vertex="1" parent="1">
          <mxGeometry x="190" y="310" width="20" height="40" as="geometry" />
        </mxCell>
        <mxCell id="wNN6C3QWMdXtGnTGVdni-48" value="&lt;div style=&quot;&quot;&gt;Mark #2&lt;/div&gt;" style="rounded=0;html=1;horizontal=1;labelPosition=right;verticalLabelPosition=middle;align=left;verticalAlign=middle;spacingLeft=5;" vertex="1" parent="1">
          <mxGeometry x="390" y="360" width="20" height="10" as="geometry" />
        </mxCell>
        <mxCell id="wNN6C3QWMdXtGnTGVdni-52" value="&lt;div style=&quot;&quot;&gt;Process #4&lt;/div&gt;" style="rounded=0;html=1;horizontal=1;labelPosition=right;verticalLabelPosition=middle;align=left;verticalAlign=middle;spacingLeft=5;strokeColor=#0040ff;" vertex="1" parent="1">
          <mxGeometry x="390" y="540" width="20" height="170" as="geometry" />
        </mxCell>
        <mxCell id="wNN6C3QWMdXtGnTGVdni-55" value="" style="rounded=0;whiteSpace=wrap;html=1;" vertex="1" parent="1">
          <mxGeometry x="190" y="490" width="20" height="30" as="geometry" />
        </mxCell>
        <mxCell id="wNN6C3QWMdXtGnTGVdni-56" value="" style="endArrow=none;dashed=1;html=1;rounded=0;entryX=0.5;entryY=1;entryDx=0;entryDy=0;" edge="1" parent="1" source="wNN6C3QWMdXtGnTGVdni-58" target="wNN6C3QWMdXtGnTGVdni-46">
          <mxGeometry width="50" height="50" relative="1" as="geometry">
            <mxPoint x="400" y="280" as="sourcePoint" />
            <mxPoint x="400" y="260" as="targetPoint" />
            <Array as="points">
              <mxPoint x="400" y="270" />
            </Array>
          </mxGeometry>
        </mxCell>
        <mxCell id="wNN6C3QWMdXtGnTGVdni-46" value="&lt;div style=&quot;&quot;&gt;Mark #1&lt;/div&gt;" style="rounded=0;html=1;horizontal=1;labelPosition=right;verticalLabelPosition=middle;align=left;verticalAlign=middle;spacingLeft=5;" vertex="1" parent="1">
          <mxGeometry x="390" y="260" width="20" height="10" as="geometry" />
        </mxCell>
        <mxCell id="wNN6C3QWMdXtGnTGVdni-57" value="&lt;div style=&quot;&quot;&gt;Pop #1&lt;/div&gt;" style="rounded=0;html=1;horizontal=1;labelPosition=right;verticalLabelPosition=middle;align=left;verticalAlign=middle;spacingLeft=5;" vertex="1" parent="1">
          <mxGeometry x="390" y="140" width="20" height="10" as="geometry" />
        </mxCell>
        <mxCell id="wNN6C3QWMdXtGnTGVdni-59" value="" style="endArrow=none;dashed=1;html=1;rounded=0;entryX=0.5;entryY=1;entryDx=0;entryDy=0;" edge="1" parent="1" source="wNN6C3QWMdXtGnTGVdni-32" target="wNN6C3QWMdXtGnTGVdni-58">
          <mxGeometry width="50" height="50" relative="1" as="geometry">
            <mxPoint x="400" y="280" as="sourcePoint" />
            <mxPoint x="400" y="270" as="targetPoint" />
            <Array as="points" />
          </mxGeometry>
        </mxCell>
        <mxCell id="wNN6C3QWMdXtGnTGVdni-58" value="&lt;div style=&quot;&quot;&gt;Pop #2&lt;/div&gt;" style="rounded=0;html=1;horizontal=1;labelPosition=right;verticalLabelPosition=middle;align=left;verticalAlign=middle;spacingLeft=5;" vertex="1" parent="1">
          <mxGeometry x="390" y="270" width="20" height="10" as="geometry" />
        </mxCell>
        <mxCell id="wNN6C3QWMdXtGnTGVdni-61" value="&lt;div style=&quot;&quot;&gt;Pop #3&lt;/div&gt;" style="rounded=0;html=1;horizontal=1;labelPosition=right;verticalLabelPosition=middle;align=left;verticalAlign=middle;spacingLeft=5;" vertex="1" parent="1">
          <mxGeometry x="390" y="390" width="20" height="10" as="geometry" />
        </mxCell>
        <mxCell id="wNN6C3QWMdXtGnTGVdni-64" style="rounded=0;orthogonalLoop=1;jettySize=auto;html=1;exitX=1;exitY=1;exitDx=0;exitDy=0;" edge="1" parent="1">
          <mxGeometry relative="1" as="geometry">
            <mxPoint x="210" y="520" as="sourcePoint" />
            <mxPoint x="280" y="520" as="targetPoint" />
          </mxGeometry>
        </mxCell>
        <mxCell id="wNN6C3QWMdXtGnTGVdni-65" value="#4" style="edgeLabel;html=1;align=center;verticalAlign=middle;resizable=0;points=[];" vertex="1" connectable="0" parent="wNN6C3QWMdXtGnTGVdni-64">
          <mxGeometry x="-0.0286" relative="1" as="geometry">
            <mxPoint as="offset" />
          </mxGeometry>
        </mxCell>
        <mxCell id="wNN6C3QWMdXtGnTGVdni-69" value="Wait for Job" style="text;html=1;strokeColor=none;fillColor=none;align=center;verticalAlign=middle;whiteSpace=wrap;rounded=0;" vertex="1" parent="1">
          <mxGeometry x="400" y="500" width="80" height="20" as="geometry" />
        </mxCell>
        <mxCell id="wNN6C3QWMdXtGnTGVdni-70" value="Wait for Job" style="text;html=1;strokeColor=none;fillColor=none;align=center;verticalAlign=middle;whiteSpace=wrap;rounded=0;" vertex="1" parent="1">
          <mxGeometry x="400" y="370" width="80" height="20" as="geometry" />
        </mxCell>
        <mxCell id="wNN6C3QWMdXtGnTGVdni-71" value="Wait for Job" style="text;html=1;strokeColor=none;fillColor=none;align=center;verticalAlign=middle;whiteSpace=wrap;rounded=0;" vertex="1" parent="1">
          <mxGeometry x="400" y="110" width="80" height="20" as="geometry" />
        </mxCell>
        <mxCell id="wNN6C3QWMdXtGnTGVdni-73" value="" style="edgeStyle=orthogonalEdgeStyle;rounded=0;orthogonalLoop=1;jettySize=auto;html=1;exitX=0.5;exitY=1;exitDx=0;exitDy=0;entryX=0.5;entryY=0;entryDx=0;entryDy=0;endArrow=none;endFill=0;dashed=1;" edge="1" parent="1" source="wNN6C3QWMdXtGnTGVdni-40" target="wNN6C3QWMdXtGnTGVdni-72">
          <mxGeometry relative="1" as="geometry">
            <mxPoint x="400" y="480" as="sourcePoint" />
            <mxPoint x="400" y="540" as="targetPoint" />
          </mxGeometry>
        </mxCell>
        <mxCell id="wNN6C3QWMdXtGnTGVdni-72" value="&lt;div style=&quot;&quot;&gt;Push #3&lt;/div&gt;" style="rounded=0;html=1;horizontal=1;labelPosition=right;verticalLabelPosition=middle;align=left;verticalAlign=middle;spacingLeft=5;" vertex="1" parent="1">
          <mxGeometry x="390" y="480" width="20" height="10" as="geometry" />
        </mxCell>
        <mxCell id="wNN6C3QWMdXtGnTGVdni-74" style="edgeStyle=orthogonalEdgeStyle;rounded=0;orthogonalLoop=1;jettySize=auto;html=1;exitX=0;exitY=0;exitDx=0;exitDy=0;entryX=0;entryY=1;entryDx=0;entryDy=0;dashed=1;endArrow=none;endFill=0;" edge="1" parent="1" source="wNN6C3QWMdXtGnTGVdni-70" target="wNN6C3QWMdXtGnTGVdni-70">
          <mxGeometry relative="1" as="geometry" />
        </mxCell>
        <mxCell id="wNN6C3QWMdXtGnTGVdni-75" value="" style="rounded=0;whiteSpace=wrap;html=1;dashed=1;dashPattern=1 1;" vertex="1" parent="1">
          <mxGeometry x="280" y="130" width="40" height="750" as="geometry" />
        </mxCell>
        <mxCell id="wNN6C3QWMdXtGnTGVdni-76" value="FIFO &lt;br&gt;(0 -&amp;gt; 1)" style="text;html=1;strokeColor=none;fillColor=none;align=center;verticalAlign=middle;whiteSpace=wrap;rounded=0;" vertex="1" parent="1">
          <mxGeometry x="270" y="90" width="60" height="40" as="geometry" />
        </mxCell>
        <mxCell id="wNN6C3QWMdXtGnTGVdni-77" value="&lt;div style=&quot;&quot;&gt;Push #4&lt;/div&gt;" style="rounded=0;html=1;horizontal=1;labelPosition=right;verticalLabelPosition=middle;align=left;verticalAlign=middle;spacingLeft=5;" vertex="1" parent="1">
          <mxGeometry x="390" y="710" width="20" height="10" as="geometry" />
        </mxCell>
        <mxCell id="wNN6C3QWMdXtGnTGVdni-78" value="&lt;div style=&quot;&quot;&gt;Pop #4&lt;/div&gt;" style="rounded=0;html=1;horizontal=1;labelPosition=right;verticalLabelPosition=middle;align=left;verticalAlign=middle;spacingLeft=5;" vertex="1" parent="1">
          <mxGeometry x="390" y="530" width="20" height="10" as="geometry" />
        </mxCell>
        <mxCell id="wNN6C3QWMdXtGnTGVdni-82" value="" style="endArrow=classic;html=1;rounded=0;exitX=1.05;exitY=0.816;exitDx=0;exitDy=0;exitPerimeter=0;entryX=0;entryY=0;entryDx=0;entryDy=0;" edge="1" parent="1">
          <mxGeometry width="50" height="50" relative="1" as="geometry">
            <mxPoint x="322" y="389.66999999999996" as="sourcePoint" />
            <mxPoint x="390" y="389.66999999999996" as="targetPoint" />
          </mxGeometry>
        </mxCell>
        <mxCell id="wNN6C3QWMdXtGnTGVdni-83" value="#3" style="edgeLabel;html=1;align=center;verticalAlign=middle;resizable=0;points=[];" vertex="1" connectable="0" parent="wNN6C3QWMdXtGnTGVdni-82">
          <mxGeometry x="0.1863" relative="1" as="geometry">
            <mxPoint as="offset" />
          </mxGeometry>
        </mxCell>
        <mxCell id="wNN6C3QWMdXtGnTGVdni-84" value="" style="endArrow=classic;html=1;rounded=0;exitX=1.05;exitY=0.816;exitDx=0;exitDy=0;exitPerimeter=0;entryX=0;entryY=0;entryDx=0;entryDy=0;" edge="1" parent="1">
          <mxGeometry width="50" height="50" relative="1" as="geometry">
            <mxPoint x="322" y="269.67" as="sourcePoint" />
            <mxPoint x="390" y="269.67" as="targetPoint" />
          </mxGeometry>
        </mxCell>
        <mxCell id="wNN6C3QWMdXtGnTGVdni-85" value="#2" style="edgeLabel;html=1;align=center;verticalAlign=middle;resizable=0;points=[];" vertex="1" connectable="0" parent="wNN6C3QWMdXtGnTGVdni-84">
          <mxGeometry x="0.1863" relative="1" as="geometry">
            <mxPoint as="offset" />
          </mxGeometry>
        </mxCell>
        <mxCell id="wNN6C3QWMdXtGnTGVdni-86" value="" style="endArrow=classic;html=1;rounded=0;exitX=1.05;exitY=0.816;exitDx=0;exitDy=0;exitPerimeter=0;entryX=0;entryY=0;entryDx=0;entryDy=0;" edge="1" parent="1">
          <mxGeometry width="50" height="50" relative="1" as="geometry">
            <mxPoint x="322" y="139.67000000000002" as="sourcePoint" />
            <mxPoint x="390" y="139.67000000000002" as="targetPoint" />
          </mxGeometry>
        </mxCell>
        <mxCell id="wNN6C3QWMdXtGnTGVdni-87" value="#1" style="edgeLabel;html=1;align=center;verticalAlign=middle;resizable=0;points=[];" vertex="1" connectable="0" parent="wNN6C3QWMdXtGnTGVdni-86">
          <mxGeometry x="0.1863" relative="1" as="geometry">
            <mxPoint as="offset" />
          </mxGeometry>
        </mxCell>
        <mxCell id="wNN6C3QWMdXtGnTGVdni-88" value="" style="endArrow=classic;html=1;rounded=0;" edge="1" parent="1">
          <mxGeometry width="50" height="50" relative="1" as="geometry">
            <mxPoint x="210" y="160" as="sourcePoint" />
            <mxPoint x="280" y="160" as="targetPoint" />
          </mxGeometry>
        </mxCell>
        <mxCell id="wNN6C3QWMdXtGnTGVdni-89" value="#2" style="edgeLabel;html=1;align=center;verticalAlign=middle;resizable=0;points=[];" vertex="1" connectable="0" parent="wNN6C3QWMdXtGnTGVdni-88">
          <mxGeometry x="-0.12" y="-2" relative="1" as="geometry">
            <mxPoint as="offset" />
          </mxGeometry>
        </mxCell>
        <mxCell id="wNN6C3QWMdXtGnTGVdni-90" value="" style="endArrow=none;dashed=1;html=1;rounded=0;fillColor=#008a00;strokeColor=#005700;" edge="1" parent="1">
          <mxGeometry width="50" height="50" relative="1" as="geometry">
            <mxPoint x="600" y="160" as="sourcePoint" />
            <mxPoint x="680" y="160.32" as="targetPoint" />
          </mxGeometry>
        </mxCell>
        <mxCell id="wNN6C3QWMdXtGnTGVdni-91" value="Frame 1" style="edgeLabel;html=1;align=center;verticalAlign=middle;resizable=0;points=[];" vertex="1" connectable="0" parent="wNN6C3QWMdXtGnTGVdni-90">
          <mxGeometry x="0.0953" y="1" relative="1" as="geometry">
            <mxPoint x="36" y="-9" as="offset" />
          </mxGeometry>
        </mxCell>
        <mxCell id="wNN6C3QWMdXtGnTGVdni-92" value="" style="endArrow=none;dashed=1;html=1;rounded=0;fillColor=#008a00;strokeColor=#005700;" edge="1" parent="1">
          <mxGeometry width="50" height="50" relative="1" as="geometry">
            <mxPoint x="600" y="280" as="sourcePoint" />
            <mxPoint x="680" y="280.32" as="targetPoint" />
          </mxGeometry>
        </mxCell>
        <mxCell id="wNN6C3QWMdXtGnTGVdni-93" value="Frame 2" style="edgeLabel;html=1;align=center;verticalAlign=middle;resizable=0;points=[];" vertex="1" connectable="0" parent="wNN6C3QWMdXtGnTGVdni-92">
          <mxGeometry x="0.0953" y="1" relative="1" as="geometry">
            <mxPoint x="36" y="-9" as="offset" />
          </mxGeometry>
        </mxCell>
        <mxCell id="wNN6C3QWMdXtGnTGVdni-94" value="" style="endArrow=none;dashed=1;html=1;rounded=0;fillColor=#008a00;strokeColor=#005700;" edge="1" parent="1">
          <mxGeometry width="50" height="50" relative="1" as="geometry">
            <mxPoint x="600" y="399.35" as="sourcePoint" />
            <mxPoint x="680" y="399.6700000000001" as="targetPoint" />
          </mxGeometry>
        </mxCell>
        <mxCell id="wNN6C3QWMdXtGnTGVdni-95" value="Frame 3" style="edgeLabel;html=1;align=center;verticalAlign=middle;resizable=0;points=[];" vertex="1" connectable="0" parent="wNN6C3QWMdXtGnTGVdni-94">
          <mxGeometry x="0.0953" y="1" relative="1" as="geometry">
            <mxPoint x="36" y="-9" as="offset" />
          </mxGeometry>
        </mxCell>
        <mxCell id="wNN6C3QWMdXtGnTGVdni-96" value="" style="endArrow=none;dashed=1;html=1;rounded=0;fillColor=#008a00;strokeColor=#005700;" edge="1" parent="1">
          <mxGeometry width="50" height="50" relative="1" as="geometry">
            <mxPoint x="600" y="519.35" as="sourcePoint" />
            <mxPoint x="680" y="519.6700000000001" as="targetPoint" />
          </mxGeometry>
        </mxCell>
        <mxCell id="wNN6C3QWMdXtGnTGVdni-97" value="Frame 4" style="edgeLabel;html=1;align=center;verticalAlign=middle;resizable=0;points=[];" vertex="1" connectable="0" parent="wNN6C3QWMdXtGnTGVdni-96">
          <mxGeometry x="0.0953" y="1" relative="1" as="geometry">
            <mxPoint x="36" y="-9" as="offset" />
          </mxGeometry>
        </mxCell>
        <mxCell id="wNN6C3QWMdXtGnTGVdni-100" value="Empty" style="rounded=0;whiteSpace=wrap;html=1;strokeColor=#00FF00;labelPosition=right;verticalLabelPosition=middle;align=left;verticalAlign=middle;spacingLeft=5;" vertex="1" parent="1">
          <mxGeometry x="630" y="160" width="20" height="120" as="geometry" />
        </mxCell>
        <mxCell id="wNN6C3QWMdXtGnTGVdni-101" value="Empty" style="rounded=0;whiteSpace=wrap;html=1;strokeColor=#00FF00;labelPosition=right;verticalLabelPosition=middle;align=left;verticalAlign=middle;spacingLeft=5;" vertex="1" parent="1">
          <mxGeometry x="630" y="280" width="20" height="120" as="geometry" />
        </mxCell>
        <mxCell id="wNN6C3QWMdXtGnTGVdni-102" value="#1" style="rounded=0;whiteSpace=wrap;html=1;strokeColor=#00FF00;labelPosition=right;verticalLabelPosition=middle;align=left;verticalAlign=middle;spacingLeft=5;" vertex="1" parent="1">
          <mxGeometry x="630" y="400" width="20" height="120" as="geometry" />
        </mxCell>
        <mxCell id="wNN6C3QWMdXtGnTGVdni-103" value="#2" style="rounded=0;whiteSpace=wrap;html=1;strokeColor=#00FF00;labelPosition=right;verticalLabelPosition=middle;align=left;verticalAlign=middle;spacingLeft=5;" vertex="1" parent="1">
          <mxGeometry x="630" y="520" width="20" height="120" as="geometry" />
        </mxCell>
        <mxCell id="wNN6C3QWMdXtGnTGVdni-104" value="" style="endArrow=none;dashed=1;html=1;rounded=0;exitX=0.5;exitY=0;exitDx=0;exitDy=0;entryX=0.5;entryY=1;entryDx=0;entryDy=0;" edge="1" parent="1" source="wNN6C3QWMdXtGnTGVdni-100" target="wNN6C3QWMdXtGnTGVdni-45">
          <mxGeometry width="50" height="50" relative="1" as="geometry">
            <mxPoint x="640" y="110" as="sourcePoint" />
            <mxPoint x="550" y="180" as="targetPoint" />
          </mxGeometry>
        </mxCell>
        <mxCell id="wNN6C3QWMdXtGnTGVdni-105" value="" style="rounded=0;whiteSpace=wrap;html=1;dashed=1;dashPattern=1 1;" vertex="1" parent="1">
          <mxGeometry x="520" y="130" width="40" height="750" as="geometry" />
        </mxCell>
        <mxCell id="wNN6C3QWMdXtGnTGVdni-106" value="FIFO&lt;br&gt;(1 -&amp;gt; 0)" style="text;html=1;strokeColor=none;fillColor=none;align=center;verticalAlign=middle;whiteSpace=wrap;rounded=0;" vertex="1" parent="1">
          <mxGeometry x="510" y="90" width="60" height="40" as="geometry" />
        </mxCell>
        <mxCell id="wNN6C3QWMdXtGnTGVdni-110" style="rounded=0;orthogonalLoop=1;jettySize=auto;html=1;exitX=1;exitY=1;exitDx=0;exitDy=0;entryX=-0.023;entryY=0.289;entryDx=0;entryDy=0;entryPerimeter=0;" edge="1" parent="1">
          <mxGeometry relative="1" as="geometry">
            <mxPoint x="401" y="370" as="sourcePoint" />
            <mxPoint x="520" y="372" as="targetPoint" />
          </mxGeometry>
        </mxCell>
        <mxCell id="wNN6C3QWMdXtGnTGVdni-111" value="#2" style="edgeLabel;html=1;align=center;verticalAlign=middle;resizable=0;points=[];" vertex="1" connectable="0" parent="wNN6C3QWMdXtGnTGVdni-110">
          <mxGeometry x="0.1177" y="-1" relative="1" as="geometry">
            <mxPoint x="13" y="-2" as="offset" />
          </mxGeometry>
        </mxCell>
        <mxCell id="wNN6C3QWMdXtGnTGVdni-112" style="rounded=0;orthogonalLoop=1;jettySize=auto;html=1;exitX=1;exitY=1;exitDx=0;exitDy=0;entryX=-0.023;entryY=0.289;entryDx=0;entryDy=0;entryPerimeter=0;" edge="1" parent="1">
          <mxGeometry relative="1" as="geometry">
            <mxPoint x="400" y="490" as="sourcePoint" />
            <mxPoint x="519" y="492" as="targetPoint" />
          </mxGeometry>
        </mxCell>
        <mxCell id="wNN6C3QWMdXtGnTGVdni-113" value="#3" style="edgeLabel;html=1;align=center;verticalAlign=middle;resizable=0;points=[];" vertex="1" connectable="0" parent="wNN6C3QWMdXtGnTGVdni-112">
          <mxGeometry x="0.1177" y="-1" relative="1" as="geometry">
            <mxPoint x="13" y="-2" as="offset" />
          </mxGeometry>
        </mxCell>
        <mxCell id="wNN6C3QWMdXtGnTGVdni-114" style="rounded=0;orthogonalLoop=1;jettySize=auto;html=1;exitX=1;exitY=1;exitDx=0;exitDy=0;entryX=-0.023;entryY=0.289;entryDx=0;entryDy=0;entryPerimeter=0;" edge="1" parent="1">
          <mxGeometry relative="1" as="geometry">
            <mxPoint x="400" y="720" as="sourcePoint" />
            <mxPoint x="519" y="722" as="targetPoint" />
          </mxGeometry>
        </mxCell>
        <mxCell id="wNN6C3QWMdXtGnTGVdni-115" value="#4" style="edgeLabel;html=1;align=center;verticalAlign=middle;resizable=0;points=[];" vertex="1" connectable="0" parent="wNN6C3QWMdXtGnTGVdni-114">
          <mxGeometry x="0.1177" y="-1" relative="1" as="geometry">
            <mxPoint x="13" y="-2" as="offset" />
          </mxGeometry>
        </mxCell>
        <mxCell id="wNN6C3QWMdXtGnTGVdni-116" value="" style="endArrow=none;dashed=1;html=1;rounded=0;fillColor=#008a00;strokeColor=#005700;" edge="1" parent="1">
          <mxGeometry width="50" height="50" relative="1" as="geometry">
            <mxPoint x="600" y="640" as="sourcePoint" />
            <mxPoint x="680" y="640.32" as="targetPoint" />
          </mxGeometry>
        </mxCell>
        <mxCell id="wNN6C3QWMdXtGnTGVdni-117" value="Frame 5" style="edgeLabel;html=1;align=center;verticalAlign=middle;resizable=0;points=[];" vertex="1" connectable="0" parent="wNN6C3QWMdXtGnTGVdni-116">
          <mxGeometry x="0.0953" y="1" relative="1" as="geometry">
            <mxPoint x="36" y="-9" as="offset" />
          </mxGeometry>
        </mxCell>
        <mxCell id="wNN6C3QWMdXtGnTGVdni-118" value="#3" style="rounded=0;whiteSpace=wrap;html=1;strokeColor=#00FF00;labelPosition=right;verticalLabelPosition=middle;align=left;verticalAlign=middle;spacingLeft=5;" vertex="1" parent="1">
          <mxGeometry x="630" y="640" width="20" height="120" as="geometry" />
        </mxCell>
        <mxCell id="wNN6C3QWMdXtGnTGVdni-120" style="rounded=0;orthogonalLoop=1;jettySize=auto;html=1;exitX=1;exitY=1;exitDx=0;exitDy=0;entryX=-0.023;entryY=0.289;entryDx=0;entryDy=0;entryPerimeter=0;" edge="1" parent="1">
          <mxGeometry relative="1" as="geometry">
            <mxPoint x="401" y="270" as="sourcePoint" />
            <mxPoint x="520" y="272" as="targetPoint" />
          </mxGeometry>
        </mxCell>
        <mxCell id="wNN6C3QWMdXtGnTGVdni-121" value="#1" style="edgeLabel;html=1;align=center;verticalAlign=middle;resizable=0;points=[];" vertex="1" connectable="0" parent="wNN6C3QWMdXtGnTGVdni-120">
          <mxGeometry x="0.1177" y="-1" relative="1" as="geometry">
            <mxPoint x="13" y="-2" as="offset" />
          </mxGeometry>
        </mxCell>
        <mxCell id="wNN6C3QWMdXtGnTGVdni-122" value="" style="endArrow=classic;html=1;rounded=0;exitX=1.05;exitY=0.816;exitDx=0;exitDy=0;exitPerimeter=0;entryX=0;entryY=0;entryDx=0;entryDy=0;" edge="1" parent="1">
          <mxGeometry width="50" height="50" relative="1" as="geometry">
            <mxPoint x="322" y="530" as="sourcePoint" />
            <mxPoint x="390" y="530" as="targetPoint" />
          </mxGeometry>
        </mxCell>
        <mxCell id="wNN6C3QWMdXtGnTGVdni-123" value="#3" style="edgeLabel;html=1;align=center;verticalAlign=middle;resizable=0;points=[];" vertex="1" connectable="0" parent="wNN6C3QWMdXtGnTGVdni-122">
          <mxGeometry x="0.1863" relative="1" as="geometry">
            <mxPoint as="offset" />
          </mxGeometry>
        </mxCell>
        <mxCell id="wNN6C3QWMdXtGnTGVdni-124" value="#4" style="edgeLabel;html=1;align=center;verticalAlign=middle;resizable=0;points=[];" vertex="1" connectable="0" parent="wNN6C3QWMdXtGnTGVdni-122">
          <mxGeometry x="0.2059" y="1" relative="1" as="geometry">
            <mxPoint as="offset" />
          </mxGeometry>
        </mxCell>
        <mxCell id="wNN6C3QWMdXtGnTGVdni-125" style="rounded=0;orthogonalLoop=1;jettySize=auto;html=1;exitX=1;exitY=1;exitDx=0;exitDy=0;" edge="1" parent="1">
          <mxGeometry relative="1" as="geometry">
            <mxPoint x="210" y="350" as="sourcePoint" />
            <mxPoint x="280" y="350" as="targetPoint" />
          </mxGeometry>
        </mxCell>
        <mxCell id="wNN6C3QWMdXtGnTGVdni-127" value="#3" style="edgeLabel;html=1;align=center;verticalAlign=middle;resizable=0;points=[];" vertex="1" connectable="0" parent="wNN6C3QWMdXtGnTGVdni-125">
          <mxGeometry x="-0.0286" y="-6" relative="1" as="geometry">
            <mxPoint x="-4" y="-6" as="offset" />
          </mxGeometry>
        </mxCell>
        <mxCell id="wNN6C3QWMdXtGnTGVdni-130" value="" style="endArrow=classic;html=1;rounded=0;" edge="1" parent="1">
          <mxGeometry width="50" height="50" relative="1" as="geometry">
            <mxPoint x="560" y="170" as="sourcePoint" />
            <mxPoint x="630" y="170.32999999999998" as="targetPoint" />
          </mxGeometry>
        </mxCell>
        <mxCell id="wNN6C3QWMdXtGnTGVdni-137" value="NULL" style="edgeLabel;html=1;align=center;verticalAlign=middle;resizable=0;points=[];" vertex="1" connectable="0" parent="wNN6C3QWMdXtGnTGVdni-130">
          <mxGeometry x="-0.12" relative="1" as="geometry">
            <mxPoint as="offset" />
          </mxGeometry>
        </mxCell>
        <mxCell id="wNN6C3QWMdXtGnTGVdni-131" value="" style="endArrow=classic;html=1;rounded=0;" edge="1" parent="1">
          <mxGeometry width="50" height="50" relative="1" as="geometry">
            <mxPoint x="560" y="290" as="sourcePoint" />
            <mxPoint x="630" y="290.33" as="targetPoint" />
          </mxGeometry>
        </mxCell>
        <mxCell id="wNN6C3QWMdXtGnTGVdni-138" value="#1" style="edgeLabel;html=1;align=center;verticalAlign=middle;resizable=0;points=[];" vertex="1" connectable="0" parent="wNN6C3QWMdXtGnTGVdni-131">
          <mxGeometry x="-0.0513" y="-1" relative="1" as="geometry">
            <mxPoint as="offset" />
          </mxGeometry>
        </mxCell>
        <mxCell id="wNN6C3QWMdXtGnTGVdni-132" value="" style="endArrow=classic;html=1;rounded=0;" edge="1" parent="1">
          <mxGeometry width="50" height="50" relative="1" as="geometry">
            <mxPoint x="560" y="410.00000000000006" as="sourcePoint" />
            <mxPoint x="630" y="410.33" as="targetPoint" />
          </mxGeometry>
        </mxCell>
        <mxCell id="wNN6C3QWMdXtGnTGVdni-139" value="#2" style="edgeLabel;html=1;align=center;verticalAlign=middle;resizable=0;points=[];" vertex="1" connectable="0" parent="wNN6C3QWMdXtGnTGVdni-132">
          <mxGeometry x="0.0402" y="-2" relative="1" as="geometry">
            <mxPoint as="offset" />
          </mxGeometry>
        </mxCell>
        <mxCell id="wNN6C3QWMdXtGnTGVdni-133" value="" style="endArrow=classic;html=1;rounded=0;" edge="1" parent="1">
          <mxGeometry width="50" height="50" relative="1" as="geometry">
            <mxPoint x="560" y="534.63" as="sourcePoint" />
            <mxPoint x="630" y="534.96" as="targetPoint" />
          </mxGeometry>
        </mxCell>
        <mxCell id="wNN6C3QWMdXtGnTGVdni-135" value="#3" style="edgeLabel;html=1;align=center;verticalAlign=middle;resizable=0;points=[];" vertex="1" connectable="0" parent="wNN6C3QWMdXtGnTGVdni-133">
          <mxGeometry x="-0.0972" relative="1" as="geometry">
            <mxPoint as="offset" />
          </mxGeometry>
        </mxCell>
        <mxCell id="wNN6C3QWMdXtGnTGVdni-140" value="&lt;div style=&quot;&quot;&gt;Process #5&lt;/div&gt;" style="rounded=0;html=1;horizontal=1;labelPosition=right;verticalLabelPosition=middle;align=left;verticalAlign=middle;spacingLeft=5;strokeColor=#0040ff;" vertex="1" parent="1">
          <mxGeometry x="390" y="730" width="20" height="80" as="geometry" />
        </mxCell>
        <mxCell id="wNN6C3QWMdXtGnTGVdni-185" style="edgeStyle=orthogonalEdgeStyle;rounded=0;orthogonalLoop=1;jettySize=auto;html=1;exitX=0.5;exitY=1;exitDx=0;exitDy=0;dashed=1;endArrow=none;endFill=0;" edge="1" parent="1" source="wNN6C3QWMdXtGnTGVdni-141">
          <mxGeometry relative="1" as="geometry">
            <mxPoint x="401" y="880" as="targetPoint" />
          </mxGeometry>
        </mxCell>
        <mxCell id="wNN6C3QWMdXtGnTGVdni-141" value="&lt;div style=&quot;&quot;&gt;Push #5&lt;/div&gt;" style="rounded=0;html=1;horizontal=1;labelPosition=right;verticalLabelPosition=middle;align=left;verticalAlign=middle;spacingLeft=5;" vertex="1" parent="1">
          <mxGeometry x="391" y="810" width="20" height="10" as="geometry" />
        </mxCell>
        <mxCell id="wNN6C3QWMdXtGnTGVdni-142" value="&lt;div style=&quot;&quot;&gt;Pop #5&lt;/div&gt;" style="rounded=0;html=1;horizontal=1;labelPosition=right;verticalLabelPosition=middle;align=left;verticalAlign=middle;spacingLeft=5;" vertex="1" parent="1">
          <mxGeometry x="390" y="720" width="20" height="10" as="geometry" />
        </mxCell>
        <mxCell id="wNN6C3QWMdXtGnTGVdni-143" style="rounded=0;orthogonalLoop=1;jettySize=auto;html=1;exitX=1;exitY=1;exitDx=0;exitDy=0;entryX=-0.023;entryY=0.289;entryDx=0;entryDy=0;entryPerimeter=0;" edge="1" parent="1">
          <mxGeometry relative="1" as="geometry">
            <mxPoint x="401" y="820" as="sourcePoint" />
            <mxPoint x="520" y="822" as="targetPoint" />
          </mxGeometry>
        </mxCell>
        <mxCell id="wNN6C3QWMdXtGnTGVdni-144" value="#5" style="edgeLabel;html=1;align=center;verticalAlign=middle;resizable=0;points=[];" vertex="1" connectable="0" parent="wNN6C3QWMdXtGnTGVdni-143">
          <mxGeometry x="0.1177" y="-1" relative="1" as="geometry">
            <mxPoint x="13" y="-2" as="offset" />
          </mxGeometry>
        </mxCell>
        <mxCell id="wNN6C3QWMdXtGnTGVdni-145" value="" style="endArrow=none;dashed=1;html=1;rounded=0;fillColor=#008a00;strokeColor=#005700;" edge="1" parent="1">
          <mxGeometry width="50" height="50" relative="1" as="geometry">
            <mxPoint x="600" y="759.33" as="sourcePoint" />
            <mxPoint x="680" y="759.6500000000001" as="targetPoint" />
          </mxGeometry>
        </mxCell>
        <mxCell id="wNN6C3QWMdXtGnTGVdni-146" value="Frame 6" style="edgeLabel;html=1;align=center;verticalAlign=middle;resizable=0;points=[];" vertex="1" connectable="0" parent="wNN6C3QWMdXtGnTGVdni-145">
          <mxGeometry x="0.0953" y="1" relative="1" as="geometry">
            <mxPoint x="36" y="-8" as="offset" />
          </mxGeometry>
        </mxCell>
        <mxCell id="wNN6C3QWMdXtGnTGVdni-147" value="" style="endArrow=classic;html=1;rounded=0;" edge="1" parent="1">
          <mxGeometry width="50" height="50" relative="1" as="geometry">
            <mxPoint x="560" y="650.9999999999999" as="sourcePoint" />
            <mxPoint x="630" y="651.3299999999999" as="targetPoint" />
          </mxGeometry>
        </mxCell>
        <mxCell id="wNN6C3QWMdXtGnTGVdni-148" value="Null" style="edgeLabel;html=1;align=center;verticalAlign=middle;resizable=0;points=[];" vertex="1" connectable="0" parent="wNN6C3QWMdXtGnTGVdni-147">
          <mxGeometry x="-0.0972" relative="1" as="geometry">
            <mxPoint as="offset" />
          </mxGeometry>
        </mxCell>
        <mxCell id="wNN6C3QWMdXtGnTGVdni-153" value="Start Frame" style="rounded=0;html=1;strokeColor=#00FF00;labelPosition=right;verticalLabelPosition=middle;align=left;verticalAlign=middle;spacingLeft=5;" vertex="1" parent="1">
          <mxGeometry x="640" y="520" width="20" height="11" as="geometry" />
        </mxCell>
        <mxCell id="wNN6C3QWMdXtGnTGVdni-156" value="Start Frame" style="rounded=0;html=1;strokeColor=#00FF00;labelPosition=right;verticalLabelPosition=middle;align=left;verticalAlign=middle;spacingLeft=5;" vertex="1" parent="1">
          <mxGeometry x="640" y="400" width="20" height="11" as="geometry" />
        </mxCell>
        <mxCell id="wNN6C3QWMdXtGnTGVdni-157" value="Start Frame" style="rounded=0;html=1;strokeColor=#00FF00;labelPosition=right;verticalLabelPosition=middle;align=left;verticalAlign=middle;spacingLeft=5;" vertex="1" parent="1">
          <mxGeometry x="640" y="280" width="20" height="11" as="geometry" />
        </mxCell>
        <mxCell id="wNN6C3QWMdXtGnTGVdni-161" value="Start Frame" style="rounded=0;html=1;strokeColor=#00FF00;labelPosition=right;verticalLabelPosition=middle;align=left;verticalAlign=middle;spacingLeft=5;" vertex="1" parent="1">
          <mxGeometry x="640" y="160" width="20" height="11" as="geometry" />
        </mxCell>
        <mxCell id="wNN6C3QWMdXtGnTGVdni-162" value="Start Frame" style="rounded=0;html=1;strokeColor=#00FF00;labelPosition=right;verticalLabelPosition=middle;align=left;verticalAlign=middle;spacingLeft=5;" vertex="1" parent="1">
          <mxGeometry x="640" y="640" width="20" height="11" as="geometry" />
        </mxCell>
        <mxCell id="wNN6C3QWMdXtGnTGVdni-166" value="#4" style="rounded=0;whiteSpace=wrap;html=1;strokeColor=#00FF00;labelPosition=right;verticalLabelPosition=middle;align=left;verticalAlign=middle;spacingLeft=5;" vertex="1" parent="1">
          <mxGeometry x="630" y="760" width="20" height="120" as="geometry" />
        </mxCell>
        <mxCell id="wNN6C3QWMdXtGnTGVdni-167" value="" style="endArrow=none;dashed=1;html=1;rounded=0;fillColor=#008a00;strokeColor=#005700;" edge="1" parent="1">
          <mxGeometry width="50" height="50" relative="1" as="geometry">
            <mxPoint x="600" y="879.33" as="sourcePoint" />
            <mxPoint x="680" y="879.6500000000001" as="targetPoint" />
          </mxGeometry>
        </mxCell>
        <mxCell id="wNN6C3QWMdXtGnTGVdni-168" value="Frame 7" style="edgeLabel;html=1;align=center;verticalAlign=middle;resizable=0;points=[];" vertex="1" connectable="0" parent="wNN6C3QWMdXtGnTGVdni-167">
          <mxGeometry x="0.0953" y="1" relative="1" as="geometry">
            <mxPoint x="36" y="-8" as="offset" />
          </mxGeometry>
        </mxCell>
        <mxCell id="wNN6C3QWMdXtGnTGVdni-169" value="Start Frame" style="rounded=0;html=1;strokeColor=#00FF00;labelPosition=right;verticalLabelPosition=middle;align=left;verticalAlign=middle;spacingLeft=5;" vertex="1" parent="1">
          <mxGeometry x="640" y="760" width="20" height="11" as="geometry" />
        </mxCell>
        <mxCell id="wNN6C3QWMdXtGnTGVdni-173" value="" style="endArrow=classic;html=1;rounded=0;" edge="1" parent="1">
          <mxGeometry width="50" height="50" relative="1" as="geometry">
            <mxPoint x="560" y="770.9999999999999" as="sourcePoint" />
            <mxPoint x="630" y="771.3299999999999" as="targetPoint" />
          </mxGeometry>
        </mxCell>
        <mxCell id="wNN6C3QWMdXtGnTGVdni-174" value="#4&lt;br&gt;" style="edgeLabel;html=1;align=center;verticalAlign=middle;resizable=0;points=[];" vertex="1" connectable="0" parent="wNN6C3QWMdXtGnTGVdni-173">
          <mxGeometry x="-0.0972" relative="1" as="geometry">
            <mxPoint as="offset" />
          </mxGeometry>
        </mxCell>
        <mxCell id="wNN6C3QWMdXtGnTGVdni-176" style="rounded=0;orthogonalLoop=1;jettySize=auto;html=1;exitX=1;exitY=1;exitDx=0;exitDy=0;" edge="1" parent="1">
          <mxGeometry relative="1" as="geometry">
            <mxPoint x="210" y="660" as="sourcePoint" />
            <mxPoint x="280" y="660" as="targetPoint" />
          </mxGeometry>
        </mxCell>
        <mxCell id="wNN6C3QWMdXtGnTGVdni-177" value="#5" style="edgeLabel;html=1;align=center;verticalAlign=middle;resizable=0;points=[];" vertex="1" connectable="0" parent="wNN6C3QWMdXtGnTGVdni-176">
          <mxGeometry x="-0.0286" relative="1" as="geometry">
            <mxPoint as="offset" />
          </mxGeometry>
        </mxCell>
        <mxCell id="wNN6C3QWMdXtGnTGVdni-180" value="" style="rounded=0;whiteSpace=wrap;html=1;" vertex="1" parent="1">
          <mxGeometry x="190" y="630.5" width="20" height="30" as="geometry" />
        </mxCell>
        <mxCell id="wNN6C3QWMdXtGnTGVdni-181" value="" style="endArrow=classic;html=1;rounded=0;entryX=0;entryY=0;entryDx=0;entryDy=0;" edge="1" parent="1">
          <mxGeometry width="50" height="50" relative="1" as="geometry">
            <mxPoint x="50" y="630.5" as="sourcePoint" />
            <mxPoint x="190" y="630.5" as="targetPoint" />
          </mxGeometry>
        </mxCell>
        <mxCell id="wNN6C3QWMdXtGnTGVdni-182" value="&amp;nbsp;Jobs #5&lt;br&gt;from USB" style="edgeLabel;html=1;align=center;verticalAlign=middle;resizable=0;points=[];" vertex="1" connectable="0" parent="wNN6C3QWMdXtGnTGVdni-181">
          <mxGeometry x="-0.0311" y="-1" relative="1" as="geometry">
            <mxPoint as="offset" />
          </mxGeometry>
        </mxCell>
        <mxCell id="wNN6C3QWMdXtGnTGVdni-183" value="" style="endArrow=none;dashed=1;html=1;rounded=0;entryX=0.5;entryY=1;entryDx=0;entryDy=0;" edge="1" parent="1">
          <mxGeometry width="50" height="50" relative="1" as="geometry">
            <mxPoint x="200" y="880" as="sourcePoint" />
            <mxPoint x="199.41" y="660.5" as="targetPoint" />
          </mxGeometry>
        </mxCell>
        <mxCell id="wNN6C3QWMdXtGnTGVdni-184" value="" style="endArrow=none;dashed=1;html=1;rounded=0;entryX=0.5;entryY=1;entryDx=0;entryDy=0;" edge="1" parent="1">
          <mxGeometry width="50" height="50" relative="1" as="geometry">
            <mxPoint x="200" y="630" as="sourcePoint" />
            <mxPoint x="199.66" y="520" as="targetPoint" />
          </mxGeometry>
        </mxCell>
        <mxCell id="wNN6C3QWMdXtGnTGVdni-186" value="Wait for Job" style="text;html=1;strokeColor=none;fillColor=none;align=center;verticalAlign=middle;whiteSpace=wrap;rounded=0;" vertex="1" parent="1">
          <mxGeometry x="400" y="840" width="80" height="20" as="geometry" />
        </mxCell>
      </root>
    </mxGraphModel>
  </diagram>
</mxfile>
